# xmcd
#
# Track frame offsets:
#	150
#	13546
#	28865
#	42586
#	56865
#	68051
#	80920
#	96111
#	107939
#	120519
#	133706
#	146577
#	160210
#	171680
#
# Disc length: 2554 seconds
#
# Revision: 0
# Processed by: cddbd v1.5.1PL2 Copyright (c) Steve Scherf et al.
# Submitted via: dBpowerAMP V4.0
#
DISCID=d009f80e
DTITLE=Various Artist - I Could Dance All Night
DYEAR=2006
DGENRE=Beach
TTITLE0=Impacts w/Pam Russell - Ain't These Tears
TTITLE1=Rhythm Masters w/Johnny Cobb - And The Rains Came
TTITLE2=Billy Scott and The Georgia Prophets - Wrapped Around Your Finger
TTITLE3=Holiday Band - Good Thing Happen To Those Who Wait
TTITLE4=Soul Inc. w/Julius Cobb - I Could Dance All Night
TTITLE5=Anthony and The Aqua Lads w/Earl Dawkins - They Say The Girls Crazy
TTITLE6=The Singing Swinging Counts - Fool
TTITLE7=Sugarbees - It's Your Voo Doo Workin'
TTITLE8=Nomads - Have I Got A Right
TTITLE9=Maurice Williams and The Zodiacs - Baby Can't You See
TTITLE10=Liberations - Just Like The Weather
TTITLE11=Spontanes w/James Bates - Where Did I Go Wrong
TTITLE12=Athens Rogues - Love Is Getting Better
TTITLE13=Entertainers - Good As Gold
EXTD=
EXTT0=
EXTT1=
EXTT2=
EXTT3=
EXTT4=
EXTT5=
EXTT6=
EXTT7=
EXTT8=
EXTT9=
EXTT10=
EXTT11=
EXTT12=
EXTT13=
PLAYORDER=
